<?xml version="1.0" encoding="UTF-8"?>
<!DOCTYPE svg PUBLIC "-//W3C//DTD SVG 1.1//EN" "http://www.w3.org/Graphics/SVG/1.1/DTD/svg11.dtd">
<!-- Creator: CorelDRAW X7 -->
<svg xmlns="http://www.w3.org/2000/svg" xml:space="preserve" width="97.8879mm" height="22.3115mm" version="1.1" style="shape-rendering:geometricPrecision; text-rendering:geometricPrecision; image-rendering:optimizeQuality; fill-rule:evenodd; clip-rule:evenodd"
viewBox="0 0 6510 1484"
 xmlns:xlink="http://www.w3.org/1999/xlink">
 <defs>
  <style type="text/css">
   <![CDATA[
    .str0 {stroke:#FEFEFE;stroke-width:13.3009}
    .fil2 {fill:#FEFEFE}
    .fil0 {fill:#1C3270}
    .fil1 {fill:#1C3270}
   ]]>
  </style>
 </defs>
 <g id="Layer_x0020_1">
  <metadata id="CorelCorpID_0Corel-Layer"/>
  <path class="fil0 str0" d="M2084 897c0,59 -14,110 -44,156 -29,45 -72,80 -128,105 -55,25 -121,38 -195,38 -63,0 -116,-5 -158,-14 -42,-8 -86,-24 -132,-46l0 -226c48,25 99,44 151,58 52,14 100,21 144,21 37,0 65,-7 82,-19 18,-13 27,-30 27,-51 0,-13 -4,-24 -11,-33 -7,-10 -18,-20 -34,-30 -16,-9 -57,-30 -125,-60 -61,-28 -107,-55 -138,-81 -30,-26 -53,-56 -68,-90 -14,-34 -22,-74 -22,-120 0,-87 32,-154 94,-203 63,-48 150,-72 260,-72 97,0 196,22 297,67l-77 196c-88,-40 -164,-60 -228,-60 -32,0 -57,5 -71,17 -16,12 -23,26 -23,43 0,19 10,35 29,50 19,14 70,41 155,79 81,37 137,76 168,118 32,42 47,94 47,157zm462 299c-119,0 -209,-33 -270,-97 -62,-64 -92,-156 -92,-277 0,-121 33,-214 99,-281 67,-66 161,-99 283,-99 85,0 164,18 239,55l-74 186c-31,-13 -59,-24 -84,-32 -26,-8 -53,-12 -81,-12 -40,0 -72,16 -94,48 -22,31 -33,76 -33,134 0,116 43,175 129,175 73,0 144,-22 212,-65l0 200c-65,43 -143,65 -234,65zm853 -14l-48 -96 -5 0c-34,42 -69,71 -104,86 -35,16 -80,24 -136,24 -69,0 -122,-21 -162,-62 -39,-41 -59,-99 -59,-174 0,-77 27,-135 81,-173 54,-38 132,-59 234,-64l122 -4 0 -10c0,-60 -30,-90 -89,-90 -53,0 -120,18 -202,54l-73 -166c85,-43 192,-65 321,-65 94,0 166,23 217,69 52,46 77,111 77,194l0 477 -174 0zm-186 -164c30,0 56,-10 78,-29 21,-19 32,-44 32,-75l0 -57 -58 3c-82,3 -124,33 -124,91 0,45 24,67 72,67zm757 178c-52,0 -97,-15 -136,-45 -39,-29 -69,-73 -90,-130 -21,-58 -32,-125 -32,-201 0,-119 24,-211 72,-278 47,-67 113,-100 195,-100 41,0 77,8 108,24 30,17 58,44 83,83l6 0c-9,-58 -13,-115 -13,-172l0 -194 254 0 0 999 -190 0 -54 -91 -10 0c-43,70 -107,105 -193,105zm103 -199c40,0 68,-13 85,-38 16,-25 25,-64 27,-117l0 -20c0,-64 -10,-110 -28,-137 -19,-27 -47,-41 -87,-41 -33,0 -58,16 -76,47 -19,31 -28,75 -28,132 0,57 9,100 28,130 18,29 44,44 79,44zm992 185l-49 -96 -5 0c-34,42 -68,71 -103,86 -35,16 -81,24 -136,24 -69,0 -123,-21 -162,-62 -40,-41 -59,-99 -59,-174 0,-77 27,-135 81,-173 54,-38 132,-59 234,-64l122 -4 0 -10c0,-60 -30,-90 -89,-90 -53,0 -121,18 -202,54l-73 -166c85,-43 192,-65 321,-65 93,0 166,23 217,69 51,46 77,111 77,194l0 477 -174 0zm-187 -164c31,0 57,-10 78,-29 22,-19 33,-44 33,-75l0 -57 -58 3c-83,3 -124,33 -124,91 0,45 24,67 71,67zm472 459c-46,0 -90,-4 -131,-13l0 -198c13,3 28,6 44,9 15,3 32,5 50,5 42,0 71,-13 89,-38 18,-25 27,-69 27,-130l0 -869 255 0 0 847c0,128 -27,224 -83,289 -56,65 -139,98 -251,98zm1151 -580c0,59 -14,110 -44,156 -29,45 -72,80 -128,105 -55,25 -121,38 -195,38 -63,0 -116,-5 -158,-14 -42,-8 -86,-24 -132,-46l0 -226c48,25 99,44 151,58 52,14 100,21 144,21 37,0 65,-7 82,-19 18,-13 27,-30 27,-51 0,-13 -4,-24 -11,-33 -7,-10 -18,-20 -34,-30 -16,-9 -57,-30 -125,-60 -61,-28 -107,-55 -138,-81 -30,-26 -53,-56 -68,-90 -14,-34 -22,-74 -22,-120 0,-87 32,-154 94,-203 63,-48 150,-72 260,-72 97,0 196,22 297,67l-77 196c-88,-40 -164,-60 -228,-60 -32,0 -57,5 -71,17 -16,12 -23,26 -23,43 0,19 10,35 29,50 19,14 70,41 155,79 81,37 137,76 168,118 32,42 47,94 47,157z"/>
  <g id="_460272192">
   <polygon class="fil1" points="612,0 858,118 1103,236 1164,502 1224,768 1054,981 885,1194 612,1194 340,1194 170,981 0,768 61,502 121,236 367,118 "/>
   <path class="fil2" d="M1078 813c-21,-17 -34,-42 -34,-71 0,-43 30,-79 70,-88l-32 -138 -35 -156c-5,1 -11,2 -16,2 -40,0 -73,-32 -73,-72 0,-12 3,-22 7,-32l-144 -69 -130 -63c-14,30 -44,50 -79,50 -35,0 -65,-20 -79,-50l-130 63 -144 69c5,10 7,20 7,32 0,40 -32,72 -72,72 -6,0 -11,-1 -16,-2l-36 156 -32 138c41,9 71,45 71,88 0,29 -14,54 -34,71l88 111 377 -325 389 310 77 -96z"/>
  </g>
 </g>
</svg>
