<?xml version="1.0" encoding="UTF-8" standalone="no"?>
<svg
   viewBox="0 -1 12 20"
   version="1.1">
  <g
     class="digit"
     id="g16">
    <polygon
       class="seven-segment-{{#if char.a}}on{{else}}off{{/if}}-state"
       points=" 1, 1  2, 0  8, 0  9, 1  8, 2  2, 2"
       id="polygon2" />
    <polygon
       class="seven-segment-{{#if char.b}}on{{else}}off{{/if}}-state"
       points=" 9, 1 10, 2 10, 8  9, 9  8, 8  8, 2"
       id="polygon4" />
    <polygon
       class="seven-segment-{{#if char.c}}on{{else}}off{{/if}}-state"
       points=" 9, 9 10,10 10,16  9,17  8,16  8,10"
       id="polygon6" />
    <polygon
       class="seven-segment-{{#if char.d}}on{{else}}off{{/if}}-state"
       points=" 9,17  8,18  2,18  1,17  2,16  8,16"
       id="polygon8" />
    <polygon
       class="seven-segment-{{#if char.e}}on{{else}}off{{/if}}-state"
       points=" 1,17  0,16  0,10  1, 9  2,10  2,16"
       id="polygon10" />
    <polygon
       class="seven-segment-{{#if char.f}}on{{else}}off{{/if}}-state"
       points=" 1, 9  0, 8  0, 2  1, 1  2, 2  2, 8"
       id="polygon12" />
    <polygon
       class="seven-segment-{{#if char.g}}on{{else}}off{{/if}}-state"
       points=" 1, 9  2, 8  8, 8  9, 9  8,10  2,10"
       id="polygon14" />
  </g>
  <circle
     class="seven-segment-{{#if dot}}on{{else}}off{{/if}}-state"
     id="path4507"
     cx="11"
     cy="18"
     r="1.8" />
</svg>
