<?xml version="1.0" encoding="UTF-8"?>
<!DOCTYPE svg PUBLIC "-//W3C//DTD SVG 1.1//EN" "http://www.w3.org/Graphics/SVG/1.1/DTD/svg11.dtd">
<!-- Creator: CorelDRAW X7 -->
<svg xmlns="http://www.w3.org/2000/svg" xml:space="preserve" width="18.4087mm" height="17.9469mm" version="1.1" style="shape-rendering:geometricPrecision; text-rendering:geometricPrecision; image-rendering:optimizeQuality; fill-rule:evenodd; clip-rule:evenodd"
viewBox="0 0 230 224"
 xmlns:xlink="http://www.w3.org/1999/xlink">
 <defs>
  <style type="text/css">
   <![CDATA[
    .fil1 {fill:#2f2f2f}
    .fil0 {fill:#FEFEFE}
   ]]>
  </style>
 </defs>
 <g id="Layer_x0020_1">
  <metadata id="CorelCorpID_0Corel-Layer"/>
  <g id="_461447416">
   <polygon class="fil0" points="115,0 161,22 207,44 219,94 230,144 198,184 166,224 115,224 64,224 32,184 0,144 11,94 23,44 69,22 "/>
   <path class="fil1" d="M203 153c-4,-3 -7,-8 -7,-13 0,-8 6,-15 13,-17l-5 -26 -7 -29c-1,0 -2,0 -3,0 -8,0 -14,-6 -14,-14 0,-2 1,-4 2,-5l-28 -13 -24 -12c-3,5 -8,9 -15,9 -6,0 -12,-4 -15,-9l-24 12 -27 13c1,1 1,3 1,5 0,8 -6,14 -14,14 -1,0 -2,0 -3,0l-6 29 -6 26c7,2 13,9 13,17 0,5 -3,10 -6,13l16 21 71 -61 73 58 15 -18z"/>
  </g>
 </g>
</svg>
